<svg width="115" height="112" viewBox="0 0 115 112" fill="none" xmlns="http://www.w3.org/2000/svg">
<g id="logo" clip-path="url(#clip0_26_454)">
<path id="Vector" d="M54.678 0.699003C55.866 -0.185997 57.56 -0.250997 58.777 0.619003C63.553 3.62 67.5 8.375 68.652 13.992C69.228 16.358 68.284 18.659 67.553 20.865C64.031 19.334 60.393 17.749 56.477 17.768C52.74 17.832 49.162 19.154 45.837 20.765C45.147 18.55 44.297 16.219 44.933 13.878C46.16 8.381 49.986 3.691 54.678 0.699003ZM90.655 86.172C93.596 92.04 95.237 98.839 93.841 105.363C93.32 107.4 92.509 109.577 90.78 110.899C89.393 111.743 87.823 110.754 86.859 109.735C84.18 106.943 82.297 103.479 79.434 100.856C82.177 99.096 84.911 97.168 86.848 94.491C88.772 92.066 89.851 89.124 90.655 86.172ZM20.597 101.353C20.537 96.677 21.507 91.966 23.574 87.767C24.687 90.624 26.178 93.433 28.504 95.496C30.71 97.437 33.13 99.128 35.53 100.826C32.544 103.521 30.671 107.168 27.833 109.986C26.829 111.009 25.035 111.78 23.828 110.652C21.353 108.261 20.776 104.633 20.597 101.353Z" fill="#238F5D"/>
<path id="Vector_2" d="M30.451 38.222C33.57 35.543 36.788 32.001 40.222 29.713C43.5129 27.5208 47.0322 25.6927 50.718 24.261C51.214 24.069 51.708 23.89 52.204 23.732C53.837 23.21 55.484 22.909 57.26 23.043C59.491 23.21 61.6631 23.865 63.7261 24.733C67.1434 26.177 70.3793 28.0177 73.367 30.217C76.389 32.456 79.085 35.067 81.879 37.576C81.971 37.658 82.684 38.392 82.756 38.361C77.199 40.84 71.7341 43.514 66.2021 46.053C62.7241 47.787 59.021 49.377 56.298 52.255C51.6171 47.932 45.579 45.641 40.008 42.744M77.89 47.704C80.97 46.313 84.0331 44.842 87.292 43.902C89.389 47.813 89.1991 52.34 89.001 56.629C88.37 63.398 87.555 70.151 86.784 76.903C86.094 81.803 85.88 87.055 83.073 91.319C80.955 90.917 79.0271 89.913 77.0631 89.068C72.6961 86.996 68.252 85.073 63.934 82.891C62.116 81.868 59.8901 80.789 59.3381 78.583C58.8301 75.277 59.139 71.914 59.099 68.584C59.219 65.285 58.901 61.925 59.586 58.675C60.053 56.355 62.27 55.112 64.173 54.059C68.661 51.764 73.317 49.821 77.89 47.704ZM47.3671 88.375C50.4141 87.117 53.618 85.988 56.118 83.752C58.876 86.252 62.3601 87.678 65.6651 89.283C69.953 91.157 74.128 93.303 78.501 94.982C77.303 96.375 75.549 97.065 74.048 98.059C69.714 100.544 65.521 103.281 61.043 105.503C58.757 106.685 55.97 107.173 53.535 106.163C51.314 105.244 49.3011 103.897 47.3031 102.581C43.5461 100.041 39.804 97.487 36.077 94.907C35.4455 94.4862 34.8936 93.9567 34.447 93.343C38.815 91.847 43.0791 90.083 47.3671 88.375Z" fill="#83B44B"/>
<path id="Vector_3" d="M87.152 35.4399C95.157 37.8389 101.806 43.4849 106.686 50.1339C110.041 54.7599 112.824 59.9089 114.1 65.5129C114.399 66.6659 114.344 67.8689 114.245 69.0459C113.981 69.2299 113.444 69.5929 113.177 69.7759C110.722 69.3579 108.65 67.9219 106.587 66.6299C102.513 63.9819 98.558 61.0299 93.941 59.3699C94.382 53.7539 94.815 47.8019 92.345 42.5539C91.222 39.8029 89.363 37.4079 87.152 35.4399Z" fill="#238F5D"/>
<path id="Vector_4" d="M24.847 58.2051C24.32 53.2751 23.987 48.0681 26.109 43.4351C30.691 44.7671 34.825 47.2471 39.144 49.2401C43.025 51.2281 47.13 52.8721 50.697 55.4121C52.69 56.7841 53.157 59.3431 53.221 61.5991C53.32 66.0821 53.33 70.5641 53.325 75.0471C53.265 76.5671 53.379 78.2211 52.505 79.5531C51.541 80.9401 49.961 81.6961 48.485 82.4101C44.664 84.1501 40.733 85.6211 36.852 87.2171C34.64 88.0761 32.449 89.0651 30.099 89.4671C27.908 86.0291 27.44 81.9041 26.913 77.9631C26.183 71.3781 25.443 64.7981 24.847 58.2051Z" fill="#83B44B"/>
<path id="Vector_5" d="M2.62407 58.478C7.23007 48.937 14.7291 40.245 24.7621 36.28C21.1501 40.3 19.2661 45.756 19.3561 51.139C19.4201 53.876 19.2411 56.66 19.8531 59.353C18.4121 60.261 16.7971 60.847 15.3411 61.728C11.5641 63.859 8.15907 66.582 4.34307 68.65C3.05607 69.311 1.49007 70.121 0.114068 69.226C-0.457932 65.464 1.24207 61.872 2.62407 58.478Z" fill="#238F5D"/>
</g>
<defs>
<clipPath id="clip0_26_454">
<rect width="115" height="112" fill="white"/>
</clipPath>
</defs>
</svg>
