<svg width="18" height="18" viewBox="0 0 18 18" fill="none" xmlns="http://www.w3.org/2000/svg">
<g id="&#240;&#159;&#166;&#134; icon &#34;plus&#34;" opacity="0.6">
<path id="Vector" d="M14.25 8.25098H9.75V3.75098C9.75 3.55206 9.67098 3.3613 9.53033 3.22065C9.38968 3.07999 9.19891 3.00098 9 3.00098C8.80109 3.00098 8.61032 3.07999 8.46967 3.22065C8.32902 3.3613 8.25 3.55206 8.25 3.75098V8.25098H3.75C3.55109 8.25098 3.36032 8.32999 3.21967 8.47065C3.07902 8.6113 3 8.80206 3 9.00098C3 9.19989 3.07902 9.39065 3.21967 9.53131C3.36032 9.67196 3.55109 9.75098 3.75 9.75098H8.25V14.251C8.25 14.4499 8.32902 14.6407 8.46967 14.7813C8.61032 14.922 8.80109 15.001 9 15.001C9.19891 15.001 9.38968 14.922 9.53033 14.7813C9.67098 14.6407 9.75 14.4499 9.75 14.251V9.75098H14.25C14.4489 9.75098 14.6397 9.67196 14.7803 9.53131C14.921 9.39065 15 9.19989 15 9.00098C15 8.80206 14.921 8.6113 14.7803 8.47065C14.6397 8.32999 14.4489 8.25098 14.25 8.25098Z" fill="#27AE60"/>
</g>
</svg>
