<svg width="24" height="24" viewBox="0 0 24 24" fill="#27ae60" xmlns="http://www.w3.org/2000/svg">
<path id="Fill 1004" d="M11.895 24C11.3663 23.9994 10.8463 23.8683 10.383 23.6187L2.01998 19.1122C1.52854 18.8469 1.1187 18.4574 0.833146 17.9842C0.54759 17.511 0.396761 16.9714 0.396367 16.4217V7.57944C0.395408 7.02911 0.545644 6.48866 0.831315 6.0148C1.11699 5.54093 1.52756 5.15112 2.01998 4.88624L10.3844 0.381119C10.8472 0.131114 11.3671 0 11.8957 0C12.4242 0 12.9442 0.131114 13.407 0.381119L21.7632 4.88757C22.2572 5.15112 22.6696 5.5402 22.957 6.01389C23.2444 6.48759 23.3961 7.0284 23.3964 7.57944V16.4204C23.3965 16.9707 23.2457 17.5109 22.9599 17.9847C22.674 18.4584 22.2636 18.8483 21.7714 19.1136L13.407 23.62C12.9436 23.8691 12.4236 23.9998 11.895 24ZM21.3032 7.66477L12.9402 12.5805V21.5348L20.7616 17.3203C20.9262 17.2321 21.0636 17.1021 21.1594 16.944C21.2552 16.7859 21.3058 16.6055 21.3059 16.4217V7.66477H21.3032ZM2.48678 7.66477V16.4204C2.48695 16.6042 2.53757 16.7846 2.63334 16.9427C2.72912 17.1008 2.86652 17.2308 3.03116 17.319L10.8525 21.5334V12.5805L2.48678 7.66477ZM11.895 2.04904C11.7184 2.05113 11.5451 2.097 11.3915 2.18237L3.99335 6.16218L11.895 10.8006L19.7967 6.15685L12.3986 2.1757C12.2443 2.09266 12.0711 2.0491 11.895 2.04904Z" fill="#7F8080"/>
</svg>
