<svg width="18" height="18" viewBox="0 0 18 18" fill="none" xmlns="http://www.w3.org/2000/svg">
<g id="&#240;&#159;&#166;&#134; icon &#34;eye outline&#34;" opacity="0.6">
<g id="Group">
<path id="Vector" d="M16.4026 8.62503C15.9226 7.79253 13.2826 3.61503 8.79755 3.75003C4.65005 3.85503 2.25005 7.50003 1.59755 8.62503C1.53173 8.73904 1.49707 8.86837 1.49707 9.00003C1.49707 9.13168 1.53173 9.26101 1.59755 9.37503C2.07005 10.1925 4.59755 14.25 9.01505 14.25H9.20255C13.3501 14.145 15.7576 10.5 16.4026 9.37503C16.4684 9.26101 16.503 9.13168 16.503 9.00003C16.503 8.86837 16.4684 8.73904 16.4026 8.62503ZM9.16505 12.75C5.93255 12.825 3.82505 10.0575 3.16505 9.00003C3.91505 7.79253 5.87255 5.32503 8.87255 5.25003C12.0901 5.16753 14.2051 7.94253 14.8726 9.00003C14.1001 10.2075 12.1651 12.675 9.16505 12.75Z" fill="#27AE60"/>
<path id="Vector_2" d="M9 6.375C8.48083 6.375 7.97331 6.52895 7.54163 6.81739C7.10995 7.10583 6.7735 7.5158 6.57482 7.99546C6.37614 8.47511 6.32415 9.00291 6.42544 9.51211C6.52673 10.0213 6.77673 10.489 7.14385 10.8562C7.51096 11.2233 7.97869 11.4733 8.48789 11.5746C8.99709 11.6758 9.52489 11.6239 10.0045 11.4252C10.4842 11.2265 10.8942 10.8901 11.1826 10.4584C11.471 10.0267 11.625 9.51918 11.625 9C11.625 8.30381 11.3484 7.63613 10.8562 7.14384C10.3639 6.65156 9.69619 6.375 9 6.375ZM9 10.125C8.7775 10.125 8.55999 10.059 8.37499 9.9354C8.18998 9.81179 8.04579 9.63609 7.96064 9.43052C7.87549 9.22495 7.85321 8.99875 7.89662 8.78052C7.94003 8.56229 8.04717 8.36184 8.20451 8.2045C8.36184 8.04717 8.5623 7.94002 8.78052 7.89662C8.99875 7.85321 9.22495 7.87549 9.43052 7.96064C9.63609 8.04578 9.81179 8.18998 9.9354 8.37498C10.059 8.55999 10.125 8.7775 10.125 9C10.125 9.29837 10.0065 9.58452 9.7955 9.79549C9.58452 10.0065 9.29837 10.125 9 10.125Z" fill="#27AE60"/>
</g>
</g>
</svg>
