<svg width="13" height="14" viewBox="0 0 13 14" fill="none" xmlns="http://www.w3.org/2000/svg">
<path id="Shape" d="M12.4615 12.858C12.5525 12.7667 12.6036 12.643 12.6036 12.514C12.6036 12.385 12.5525 12.2613 12.4615 12.17L8.95687 8.66667C9.63891 7.82958 10.0106 6.78243 10.0089 5.70267C10.0074 4.45588 9.51154 3.26055 8.62994 2.37894C7.74833 1.49732 6.55303 1.00141 5.30625 1C4.05947 1.00141 2.86416 1.49732 1.98256 2.37894C1.10095 3.26055 0.605049 4.45588 0.603638 5.70267C0.605049 6.94946 1.10095 8.14478 1.98256 9.0264C2.86416 9.90801 4.05947 10.4039 5.30625 10.4053C6.386 10.407 7.43314 10.0354 8.27021 9.35333L11.7748 12.858C11.8658 12.9488 11.989 12.9998 12.1175 13C12.1814 13.0001 12.2446 12.9876 12.3036 12.9632C12.3627 12.9389 12.4163 12.9031 12.4615 12.858ZM9.03621 5.70267C9.03515 6.69142 8.6419 7.63938 7.94275 8.33853C7.2436 9.03769 6.29566 9.43094 5.30692 9.432C4.31806 9.43112 3.36994 9.03794 2.67065 8.33877C1.97136 7.63959 1.57802 6.69154 1.57696 5.70267C1.57802 4.71391 1.97126 3.76596 2.67041 3.0668C3.36956 2.36764 4.31751 1.97439 5.30625 1.97333C6.29511 1.97422 7.24322 2.36739 7.94252 3.06656C8.64181 3.76574 9.03515 4.7138 9.03621 5.70267Z" fill="#7F8080" stroke="#7F8080" stroke-width="0.5"/>
</svg>
