<svg width="18" height="19" viewBox="0 0 18 19" fill="none" xmlns="http://www.w3.org/2000/svg">
<path id="Fill 1157" d="M8.79803 18.113C8.57103 18.113 8.34603 18.105 8.13003 18.088C7.65478 18.0441 7.20886 17.839 6.86633 17.5066C6.52379 17.1743 6.30526 16.7347 6.24703 16.261L6.17603 15.77C6.14147 15.6166 6.07222 15.473 5.97359 15.3505C5.87496 15.2279 5.74956 15.1296 5.60703 15.063C5.48303 14.996 5.36003 14.925 5.24203 14.851C5.05983 14.7324 4.84834 14.6667 4.63103 14.661C4.53324 14.6599 4.43616 14.6776 4.34503 14.713L3.88303 14.897C3.61882 15.0018 3.33723 15.0557 3.05303 15.056C2.72084 15.0615 2.39247 14.9847 2.09723 14.8323C1.80198 14.68 1.54906 14.4569 1.36103 14.183C1.10919 13.8129 0.885236 13.4244 0.691026 13.021C0.491683 12.5876 0.446769 12.099 0.563757 11.6365C0.680745 11.174 0.95258 10.7655 1.33403 10.479L1.72503 10.169C1.84086 10.063 1.93078 9.93169 1.98782 9.78535C2.04487 9.63901 2.06752 9.48152 2.05403 9.32504C2.05403 9.26204 2.05403 9.19204 2.05403 9.11304C2.05403 9.03404 2.05403 8.96404 2.05403 8.90104C2.06752 8.74455 2.04487 8.58706 1.98782 8.44072C1.93078 8.29438 1.84086 8.16311 1.72503 8.05704L1.33403 7.74704C0.952729 7.46041 0.681009 7.05193 0.564033 6.58948C0.447057 6.12704 0.491871 5.63849 0.691026 5.20504C0.885069 4.80154 1.10903 4.41312 1.36103 4.04304C1.54906 3.76914 1.80198 3.54607 2.09723 3.39373C2.39247 3.2414 2.72084 3.16455 3.05303 3.17004C3.33723 3.17038 3.61882 3.22432 3.88303 3.32904L4.34503 3.51304C4.43616 3.54849 4.53324 3.56614 4.63103 3.56504C4.84834 3.55939 5.05983 3.49363 5.24203 3.37504C5.36003 3.30104 5.48303 3.22904 5.60703 3.16304C5.74965 3.09659 5.87512 2.9983 5.97377 2.87573C6.07242 2.75315 6.14161 2.60957 6.17603 2.45604L6.24703 1.96604C6.30519 1.49211 6.52365 1.05232 6.86615 0.719643C7.20865 0.386961 7.65461 0.181389 8.13003 0.137037C8.35003 0.121037 8.57403 0.113037 8.79803 0.113037C9.02203 0.113037 9.24703 0.121037 9.46703 0.137037C9.94224 0.181206 10.388 0.386612 10.7304 0.719141C11.0728 1.05167 11.291 1.49131 11.349 1.96504L11.421 2.45504C11.455 2.60862 11.5239 2.7523 11.6224 2.87492C11.7209 2.99754 11.8464 3.09579 11.989 3.16204C12.108 3.22504 12.228 3.29504 12.355 3.37404C12.5372 3.49263 12.7487 3.55839 12.966 3.56404C13.0641 3.5652 13.1616 3.54754 13.253 3.51204L13.714 3.32804C13.9783 3.22339 14.2598 3.16945 14.544 3.16904C14.8762 3.16364 15.2045 3.24053 15.4998 3.39285C15.795 3.54518 16.0479 3.7682 16.236 4.04204C16.4887 4.41206 16.7133 4.80048 16.908 5.20404C17.1072 5.63749 17.152 6.12604 17.035 6.58848C16.918 7.05093 16.6463 7.45941 16.265 7.74604L15.873 8.05604C15.7572 8.16211 15.6674 8.29341 15.6106 8.43977C15.5537 8.58613 15.5313 8.74362 15.545 8.90004C15.545 8.97004 15.545 9.04104 15.545 9.11204C15.545 9.18304 15.545 9.25404 15.545 9.32404C15.5313 9.48046 15.5537 9.63794 15.6106 9.7843C15.6674 9.93066 15.7572 10.062 15.873 10.168L16.265 10.478C16.6465 10.7645 16.9183 11.173 17.0353 11.6355C17.1523 12.098 17.1074 12.5866 16.908 13.02C16.7132 13.4235 16.4886 13.8119 16.236 14.182C16.0479 14.4559 15.795 14.6789 15.4998 14.8312C15.2045 14.9835 14.8762 15.0604 14.544 15.055C14.2598 15.0546 13.9783 15.0007 13.714 14.896L13.253 14.712C13.1616 14.6765 13.0641 14.6589 12.966 14.66C12.7487 14.6657 12.5372 14.7314 12.355 14.85C12.227 14.93 12.108 14.999 11.989 15.062C11.8465 15.1285 11.7212 15.2268 11.6227 15.3494C11.5242 15.472 11.4552 15.6155 11.421 15.769L11.349 16.26C11.2912 16.7337 11.0729 17.1733 10.7305 17.5057C10.3881 17.8381 9.94222 18.0433 9.46703 18.087C9.25103 18.105 9.02603 18.113 8.79803 18.113ZM4.62503 13.159C5.12383 13.1665 5.61094 13.3111 6.03303 13.577C6.14603 13.646 6.23303 13.697 6.31703 13.741C6.66783 13.9164 6.9723 14.1721 7.20567 14.4873C7.43903 14.8025 7.59471 15.1683 7.66003 15.555L7.73103 16.045C7.74124 16.1804 7.79704 16.3082 7.8893 16.4078C7.98157 16.5073 8.10485 16.5726 8.23903 16.593C8.41903 16.606 8.60703 16.613 8.79803 16.613C8.98903 16.613 9.17703 16.606 9.35703 16.593C9.4912 16.5726 9.61448 16.5073 9.70675 16.4078C9.79901 16.3082 9.85481 16.1804 9.86503 16.045L9.93603 15.555C10.0015 15.1683 10.1574 14.8024 10.3909 14.4872C10.6245 14.172 10.9291 13.9163 11.28 13.741C11.371 13.692 11.46 13.641 11.565 13.577C11.9867 13.3111 12.4735 13.1664 12.972 13.159C13.2583 13.1582 13.5421 13.2122 13.808 13.318L14.269 13.502C14.356 13.5377 14.449 13.5563 14.543 13.557C14.631 13.5599 14.7184 13.5414 14.7976 13.5031C14.8769 13.4648 14.9456 13.4078 14.998 13.337C15.2082 13.0287 15.3951 12.7052 15.557 12.369C15.6076 12.2433 15.6133 12.104 15.5733 11.9745C15.5332 11.845 15.4498 11.7332 15.337 11.658L14.945 11.347C14.6424 11.0978 14.4031 10.7806 14.2467 10.4211C14.0903 10.0617 14.0211 9.67031 14.045 9.27904V9.11304V8.94704C14.0212 8.55563 14.0904 8.16414 14.2468 7.80455C14.4032 7.44497 14.6425 7.12748 14.945 6.87804L15.337 6.56804C15.4499 6.49265 15.5333 6.38074 15.5734 6.25108C15.6135 6.12143 15.6077 5.98194 15.557 5.85604C15.3951 5.51989 15.2082 5.19632 14.998 4.88804C14.9456 4.81703 14.8767 4.75981 14.7973 4.72132C14.7178 4.68282 14.6302 4.66419 14.542 4.66704C14.4484 4.66783 14.3557 4.6865 14.269 4.72204L13.808 4.90704C13.5417 5.01283 13.2576 5.0668 12.971 5.06604C12.4728 5.05881 11.9863 4.91416 11.565 4.64804C11.475 4.59404 11.378 4.53704 11.28 4.48304C10.9291 4.3082 10.6245 4.05294 10.3909 3.73805C10.1574 3.42317 10.0015 3.05757 9.93603 2.67104L9.86503 2.18104C9.85584 2.04546 9.80037 1.91714 9.7079 1.81757C9.61543 1.718 9.49156 1.6532 9.35703 1.63404C9.17703 1.62104 8.98903 1.61404 8.79803 1.61404C8.60703 1.61404 8.41903 1.62104 8.23903 1.63404C8.10449 1.6532 7.98063 1.718 7.88815 1.81757C7.79568 1.91714 7.74021 2.04546 7.73103 2.18104L7.66003 2.67104C7.59497 3.05759 7.4395 3.42329 7.20629 3.73836C6.97308 4.05342 6.66872 4.30892 6.31803 4.48404C6.23303 4.52904 6.14303 4.58404 6.03403 4.64904C5.61238 4.9151 5.12554 5.05973 4.62703 5.06704C4.34073 5.06726 4.05701 5.01296 3.79103 4.90704L3.33103 4.72204C3.24433 4.68657 3.15169 4.6679 3.05803 4.66704C2.96979 4.66411 2.88217 4.6827 2.80272 4.7212C2.72328 4.7597 2.6544 4.81696 2.60203 4.88804C2.39153 5.19632 2.20434 5.51988 2.04203 5.85604C1.99195 5.98201 1.98646 6.12131 2.02648 6.25083C2.0665 6.38034 2.14962 6.49227 2.26203 6.56804L2.65403 6.87804C2.95671 7.12738 3.19606 7.44484 3.35249 7.80446C3.50892 8.16407 3.57798 8.55561 3.55403 8.94704V9.11304V9.27904C3.57806 9.67033 3.50904 10.0618 3.3526 10.4212C3.19616 10.7807 2.95676 11.098 2.65403 11.347L2.26203 11.658C2.14955 11.7335 2.06636 11.8453 2.02632 11.9746C1.98629 12.104 1.99183 12.2432 2.04203 12.369C2.20418 12.7053 2.39137 13.0289 2.60203 13.337C2.65435 13.4078 2.7231 13.4649 2.80237 13.5032C2.88164 13.5415 2.96903 13.56 3.05703 13.557C3.15102 13.5562 3.24401 13.5376 3.33103 13.502L3.79103 13.318C4.0564 13.2125 4.33945 13.1586 4.62503 13.159ZM8.79803 12.859C8.05618 12.859 7.33099 12.639 6.71422 12.2268C6.09745 11.8145 5.61681 11.2286 5.3331 10.5432C5.04939 9.85772 4.97536 9.10351 5.12038 8.37598C5.2654 7.64844 5.62295 6.98026 6.14779 6.45597C6.67264 5.93168 7.3412 5.57485 8.06889 5.43061C8.79658 5.28636 9.55071 5.3612 10.2359 5.64564C10.921 5.93008 11.5064 6.41135 11.918 7.02856C12.3296 7.64577 12.5488 8.37119 12.548 9.11304C12.547 10.1073 12.1515 11.0605 11.4485 11.7635C10.7455 12.4666 9.79226 12.862 8.79803 12.863V12.859ZM8.79803 6.85904C8.35319 6.85904 7.91833 6.9909 7.54841 7.23795C7.17849 7.48501 6.8901 7.83618 6.71968 8.24708C6.54927 8.65798 6.50448 9.11017 6.59097 9.54652C6.67746 9.98287 6.89136 10.3838 7.20563 10.6986C7.51989 11.0134 7.92043 11.228 8.35663 11.3153C8.79282 11.4026 9.24509 11.3586 9.6563 11.1889C10.0675 11.0192 10.4192 10.7315 10.6669 10.362C10.9146 9.99249 11.0472 9.55787 11.048 9.11304C11.0472 8.51654 10.8099 7.94471 10.3881 7.52292C9.96635 7.10114 9.39452 6.86383 8.79803 6.86304V6.85904Z" fill="#686969"/>
</svg>
